<svg width="24" height="24" viewBox="0 0 24 24" fill="none" xmlns="http://www.w3.org/2000/svg">
<path d="M20.4823 3.51767C15.7921 -1.17256 8.2079 -1.17256 3.51767 3.51767C-1.17256 8.2079 -1.17256 15.7921 3.51767 20.4823C8.2079 25.1726 15.7921 25.1726 20.4823 20.4823C25.1726 15.7921 25.1726 8.2079 20.4823 3.51767ZM16.4906 15.0936C16.8898 15.4927 16.8898 16.0915 16.4906 16.4906C16.2911 16.6902 15.9917 16.79 15.7921 16.79C15.5925 16.79 15.2931 16.6902 15.0936 16.4906L12 13.3971L8.90645 16.4906C8.70686 16.6902 8.40749 16.79 8.2079 16.79C8.00832 16.79 7.70894 16.6902 7.50936 16.4906C7.11019 16.0915 7.11019 15.4927 7.50936 15.0936L10.6029 12L7.50936 8.90644C7.11019 8.50728 7.11019 7.90852 7.50936 7.50936C7.90852 7.11019 8.50728 7.11019 8.90645 7.50936L12 10.6029L15.0936 7.50936C15.4927 7.11019 16.0915 7.11019 16.4906 7.50936C16.8898 7.90852 16.8898 8.50728 16.4906 8.90644L13.3971 12L16.4906 15.0936Z" fill="#454545"/>
<path d="M16.4916 7.50885C16.0924 7.10968 15.4937 7.10968 15.0945 7.50885L12.001 10.6024L8.9074 7.50885C8.50824 7.10968 7.90948 7.10968 7.51031 7.50885C7.11115 7.90802 7.11115 8.50677 7.51031 8.90594L10.6039 11.9995L7.51031 15.093C7.11115 15.4922 7.11115 16.091 7.51031 16.4901C7.7099 16.6897 8.00928 16.7895 8.20886 16.7895C8.40844 16.7895 8.70782 16.6897 8.9074 16.4901L12.001 13.3966L15.0945 16.4901C15.2941 16.6897 15.5935 16.7895 15.7931 16.7895C15.9926 16.7895 16.292 16.6897 16.4916 16.4901C16.8908 16.091 16.8908 15.4922 16.4916 15.093L13.398 11.9995L16.4916 8.90594C16.8908 8.50677 16.8908 7.90802 16.4916 7.50885Z" fill="white"/>
</svg>
